<svg xmlns="http://www.w3.org/2000/svg" version="1.1" xmlns:xlink="http://www.w3.org/1999/xlink" xmlns:svgjs="http://svgjs.dev/svgjs" width="100%" height="100%" viewBox="0 0 1000 600"><rect width="1000" height="600" x="0" y="0" fill="#1f2833"/><g><rect width="333.3333333333333" height="333.3333333333333" rx="13.333333333333334" ry="13.333333333333334" y="178.87416395851466" fill="#66fcf1" transform="matrix(0.7979475158625208,0,0,0.7979475158625206,0,24.27658788133425)" x="156.65194702148438"/><path d="M286.47445671308105 338.25510842488785L360.1627635338848 338.25510842488785L360.1627635338848 279.3460214070582L345.0199073912945 277.47589166046043Q344.2666606878038 274.6706970405637 345.0199073912945 270.54082718349366L345.0199073912945 270.54082718349366Q355.3056209975823 271.2940738869844 370.6302953099806 271.2940738869844L370.6302953099806 271.2940738869844Q384.47445023965577 271.2940738869844 396.44847542273317 270.7226453533018L396.44847542273317 270.7226453533018Q397.5653584658402 274.0992685068811 396.44847542273317 277.47589166046043L396.44847542273317 277.47589166046043L380.91600891626837 279.7096577466744Q380.1627622127776 286.82654039344925 380.1627622127776 301.579786172165L380.1627622127776 301.579786172165L380.1627622127776 411.7356230516253L395.30561835536787 413.605752798223Q396.05886505885866 416.41094741811963 395.30561835536787 420.5408172751898L395.30561835536787 420.5408172751898Q383.5393853663569 419.9693887415071 369.69523043668175 419.9693887415071L369.69523043668175 419.9693887415071Q359.59133500020215 419.9693887415071 343.8770503239292 420.33302508112337L343.8770503239292 420.33302508112337Q342.7601672808222 416.98237595180234 343.8770503239292 413.605752798223L343.8770503239292 413.605752798223L359.40951683039407 411.371986712009Q360.1627635338848 404.2551040652342 360.1627635338848 389.4758842622601L360.1627635338848 389.4758842622601L360.1627635338848 347.6057571578768L286.47445671308105 347.6057571578768L286.47445671308105 411.7356230516253L301.61731285567134 413.605752798223Q302.3705595591621 416.41094741811963 301.61731285567134 420.5408172751898L301.61731285567134 420.5408172751898Q289.85107986666037 419.9693887415071 276.00692493698523 419.9693887415071L276.00692493698523 419.9693887415071Q265.90302950050557 419.9693887415071 250.18874482423266 420.33302508112337L250.18874482423266 420.33302508112337Q249.07186178112565 416.98237595180234 250.18874482423266 413.605752798223L250.18874482423266 413.605752798223L265.72121133069743 411.371986712009Q266.4744580341882 404.2551040652342 266.4744580341882 389.4758842622601L266.4744580341882 389.4758842622601L266.4744580341882 279.3460214070582L251.30562786733964 277.47589166046043Q250.5783551881072 274.6706970405637 251.30562786733964 270.54082718349366L251.30562786733964 270.54082718349366Q261.5913414736274 271.2940738869844 276.9419898102841 271.2940738869844L276.9419898102841 271.2940738869844Q290.5783525458928 271.2940738869844 302.7341958987783 270.7226453533018L302.7341958987783 270.7226453533018Q303.87705296614365 274.0992685068811 302.7341958987783 277.47589166046043L302.7341958987783 277.47589166046043L287.2277034165718 279.7096577466744Q286.47445671308105 286.82654039344925 286.47445671308105 301.579786172165L286.47445671308105 301.579786172165L286.47445671308105 338.25510842488785Z " fill="#1f2833" transform="matrix(0.7979475158625208,0,0,0.7979475158625206,0,24.27658788133425)"/><path d="M609.4005170886337 336.85419030217184L681.5643277026647 336.85419030217184L681.5643277026647 279.16384047044033L666.7347536497991 277.3324007932425Q665.9970904464833 274.5852412774458 666.7347536497991 270.54081199030054L666.7347536497991 270.54081199030054Q676.8076718743871 271.2784751936164 691.815302562536 271.2784751936164L691.815302562536 271.2784751936164Q705.3730435062365 271.2784751936164 717.0993447727393 270.7188686255837L717.0993447727393 270.7188686255837Q718.1931212466213 274.0256347094131 717.0993447727393 277.3324007932425L717.0993447727393 277.3324007932425L701.8882207871239 279.5199537410066Q701.1505575838082 286.4895991792316 701.1505575838082 300.9376232993478L701.1505575838082 300.9376232993478L701.1505575838082 408.8145076187365L715.980131636674 410.6459472959344Q716.7177948399898 413.3931068117311 715.980131636674 417.43753609887625L715.980131636674 417.43753609887625Q704.4573236676376 416.8779295308436 690.899582723937 416.8779295308436L690.899582723937 416.8779295308436Q681.0047211346322 416.8779295308436 665.6155405137338 417.2340428014099L665.6155405137338 417.2340428014099Q664.5217640398516 413.9527133797638 665.6155405137338 410.6459472959344L665.6155405137338 410.6459472959344L680.826664499349 408.4583943481703Q681.5643277026647 401.4887489099452 681.5643277026647 387.01528812764576L681.5643277026647 387.01528812764576L681.5643277026647 346.01138868816105L609.4005170886337 346.01138868816105L609.4005170886337 408.8145076187365L624.2300911414995 410.6459472959344Q624.9677543448153 413.3931068117311 624.2300911414995 417.43753609887625L624.2300911414995 417.43753609887625Q612.7072831724631 416.8779295308436 599.1495422287626 416.8779295308436L599.1495422287626 416.8779295308436Q589.2546806394577 416.8779295308436 573.8655000185593 417.2340428014099L573.8655000185593 417.2340428014099Q572.7717235446772 413.9527133797638 573.8655000185593 410.6459472959344L573.8655000185593 410.6459472959344L589.0766240041746 408.4583943481703Q589.8142872074903 401.4887489099452 589.8142872074903 387.01528812764576L589.8142872074903 387.01528812764576L589.8142872074903 279.16384047044033L574.9592764924413 277.3324007932425Q574.2470499513088 274.5852412774458 574.9592764924413 270.54081199030054L574.9592764924413 270.54081199030054Q585.0321947170294 271.2784751936164 600.0652620673616 271.2784751936164L600.0652620673616 271.2784751936164Q613.4195097135956 271.2784751936164 625.3238676153815 270.7188686255837L625.3238676153815 270.7188686255837Q626.4430807514468 274.0256347094131 625.3238676153815 277.3324007932425L625.3238676153815 277.3324007932425L610.1381802919495 279.5199537410066Q609.4005170886337 286.4895991792316 609.4005170886337 300.9376232993478L609.4005170886337 300.9376232993478L609.4005170886337 336.85419030217184ZM729.919422513124 368.1667214498181L729.919422513124 368.1667214498181Q729.919422513124 357.17808338663116 733.1244419482202 347.5630250813426Q736.3294613833165 337.9479667760539 742.3579503207593 330.8002647025457Q748.4118759203855 323.6525626290375 756.933157751792 319.5318233553424Q765.4290029210152 315.4110840816473 776.061527713636 315.4110840816473L776.061527713636 315.4110840816473Q786.4905592087904 315.4110840816473 795.1135876889301 319.5318233553424Q803.7111795068865 323.6525626290375 809.8414150930626 330.8002647025457Q815.9970873414219 337.9479667760539 819.2784167630681 347.5630250813426Q822.5851828468975 357.17808338663116 822.5851828468975 368.1667214498181L822.5851828468975 368.1667214498181Q822.5851828468975 379.51147278357126 819.2021067765181 389.05022110231Q815.7935940439555 398.5635327588654 809.6633584577795 405.6094881836403Q803.5331228716034 412.6554436084153 794.935531053647 416.59812624682723Q786.3125025735071 420.5408088852393 776.061527713636 420.5408088852393L776.061527713636 420.5408088852393Q765.2509462857321 420.5408088852393 756.7296644543256 416.69987289556053Q748.2338192851024 412.85893690588176 742.2816403342094 405.8892914676566Q736.3294613833165 398.9196460294316 733.1244419482202 389.304587724143Q729.919422513124 379.6895294188544 729.919422513124 368.1667214498181ZM756.6533544677757 334.4631440569414L756.6533544677757 334.4631440569414Q748.7679891909517 345.6298387554115 748.7679891909517 368.1667214498181L748.7679891909517 368.1667214498181Q748.7679891909517 379.3334161482881 750.8792321521659 387.7529513309615Q752.9904751133801 396.17248651363485 756.6533544677757 401.7685521939615Q760.3162338221713 407.3646178742883 765.2509462857321 410.111777390085Q770.2110954114763 412.85893690588176 776.061527713636 412.85893690588176L776.061527713636 412.85893690588176Q781.7339033805126 412.85893690588176 786.8721091415398 410.111777390085Q791.9848782403838 407.3646178742883 795.6477575947794 401.7685521939615Q799.3106369491751 396.17248651363485 801.5236265591225 387.7529513309615Q803.7111795068865 379.3334161482881 803.7111795068865 368.1667214498181L803.7111795068865 368.1667214498181Q803.7111795068865 357.000026751348 801.5236265591225 348.47874491994145Q799.3106369491751 339.9574630885349 795.5714476082295 334.36139740820823Q791.8068216051006 328.7907683900648 786.7703624928066 325.94186222553486Q781.7339033805126 323.11839272318815 776.061527713636 323.11839272318815L776.061527713636 323.11839272318815Q764.7167763798828 323.11839272318815 756.6533544677757 334.4631440569414ZM851.32861111403 387.2187814251121L851.32861111403 387.2187814251121L851.32861111403 279.16384047044033L836.4990370611642 277.12890749577605Q835.4052605872822 273.84757807412996 836.4990370611642 270.54081199030054L836.4990370611642 270.54081199030054L861.5795859739012 271.1004185583332L935.5748362651301 271.1004185583332L935.7528929004133 313.57964440444954Q931.7339002754513 314.31730760776526 928.9867407596545 313.57964440444954L928.9867407596545 313.57964440444954L920.3891489416981 280.43567357960546L870.9402776573568 280.43567357960546L870.9402776573568 335.3788638955403L900.243312492522 334.8192573275076L904.440361752767 316.88641048827895Q907.1875212685637 316.1487472849631 911.231950555709 316.88641048827895L911.231950555709 316.88641048827895Q910.4942873523931 327.1373853481501 910.4942873523931 340.51706965656757L910.4942873523931 340.51706965656757Q910.4942873523931 352.7775408289197 911.0284572582425 364.32578546013934L911.0284572582425 364.32578546013934Q907.7471278365964 365.4195619340214 904.440361752767 364.32578546013934L904.440361752767 364.32578546013934L900.4213691278051 345.2737254848452L870.9402776573568 344.71411891681254L870.9402776573568 407.5426745095713L925.8834679732915 407.5426745095713L934.481059791248 374.3987036847273Q937.2282193070447 373.6610404814116 941.2472119320067 374.3987036847273L941.2472119320067 374.3987036847273L941.0691552967236 416.8779295308436L861.5795859739012 416.8779295308436L835.4052605872822 417.43753609887625Q834.3114841134003 414.13077001504683 835.4052605872822 410.8240039312174L835.4052605872822 410.8240039312174L850.5909479107141 408.8145076187365Q851.32861111403 399.47925259746427 851.32861111403 387.2187814251121ZM1059.5785644087327 325.8655522389849L1045.8427668297493 327.8750485514659L1015.2424622232355 365.77567520458757L1047.1145999389146 407.1611245768218L1062.5037805598126 410.111777390085Q1063.2414437631287 413.0369935411648 1062.5037805598126 417.43753609887625L1062.5037805598126 417.43753609887625Q1050.9555359285932 416.8779295308436 1038.1354581882083 416.8779295308436L1038.1354581882083 416.8779295308436Q1028.9782598022193 416.8779295308436 1013.5890791813209 417.2340428014099L1013.5890791813209 417.2340428014099Q1012.4953027074388 413.57116344701416 1013.5890791813209 410.111777390085L1013.5890791813209 410.111777390085L1026.9687634897382 408.0768444154207L1003.8977108894824 377.85808974165656L979.7074451531611 408.63645098345336L992.1714096229795 410.111777390085Q992.9090728262953 413.0369935411648 992.1714096229795 417.43753609887625L992.1714096229795 417.43753609887625Q980.6231649917598 416.8779295308436 973.2974062829686 416.8779295308436L973.2974062829686 416.8779295308436Q969.634526928573 416.8779295308436 954.2707829698579 417.2340428014099L954.2707829698579 417.2340428014099Q953.1515698337925 413.57116344701416 954.2707829698579 410.111777390085L954.2707829698579 410.111777390085L968.0065805488415 408.0768444154207L998.2253352226056 370.5323310328652L965.7935909388942 328.05310518674895L954.6268962404241 325.48400230623537Q953.8892330371083 322.5587861551555 954.6268962404241 318.3363002327272L954.6268962404241 318.3363002327272Q964.6998144650122 319.073963436043 976.9602856373643 319.073963436043L976.9602856373643 319.073963436043Q987.592810429985 319.073963436043 999.4971683317709 318.53979353019366L999.4971683317709 318.53979353019366Q1000.5909448056528 321.82112295183975 999.4971683317709 325.48400230623537L999.4971683317709 325.48400230623537L986.3209773208199 327.8750485514659L1010.1296931243916 359.0095230638289L1035.0321854018453 327.31544198343323L1022.5682209320267 325.8655522389849Q1021.8305577287109 322.9148994257218 1022.5682209320267 318.53979353019366L1022.5682209320267 318.53979353019366Q1032.6411391566148 319.25202007132606 1040.882617704005 319.25202007132606L1040.882617704005 319.25202007132606Q1047.674206506947 319.25202007132606 1059.5785644087327 318.7178501654767L1059.5785644087327 318.7178501654767Q1060.672340882615 322.38072951987243 1059.5785644087327 325.8655522389849L1059.5785644087327 325.8655522389849ZM1084.8371699567529 396.5540364463844L1084.8371699567529 396.5540364463844Q1089.7973190824969 396.5540364463844 1093.1803951528764 399.7590558814806Q1096.5634712232556 402.96407531657684 1096.5634712232556 407.7207311448545L1096.5634712232556 407.7207311448545Q1096.5634712232556 412.4773869731321 1093.1803951528764 415.8604630435115Q1089.7973190824969 419.2689757760741 1085.015226592036 419.2689757760741L1085.015226592036 419.2689757760741Q1080.2585707637581 419.2689757760741 1076.875494693379 415.8604630435115Q1073.4924186229996 412.4773869731321 1073.4924186229996 407.7207311448545L1073.4924186229996 407.7207311448545Q1073.4924186229996 402.96407531657684 1076.7737480446458 399.7590558814806Q1080.0805141284752 396.5540364463844 1084.8371699567529 396.5540364463844Z " fill="#66fcf1" transform="matrix(0.7979475158625208,0,0,0.7979475158625206,0,24.27658788133425)"/></g></svg>